<svg width="32" height="32" viewBox="0 0 32 32" fill="none" xmlns="http://www.w3.org/2000/svg">
<circle cx="16" cy="16" r="16" fill="#DDDDDD"/>
<path d="M6.363 18.4106C6.363 19.3721 6.55206 20.1894 6.93018 20.8624C7.3083 21.5355 7.82646 22.0506 8.48466 22.4077C9.14287 22.7511 9.89211 22.9228 10.7324 22.9228C11.5726 22.9228 12.3219 22.7511 12.9801 22.4077C13.6523 22.0506 14.1774 21.5355 14.5556 20.8624C14.9337 20.1894 15.1227 19.3721 15.1227 18.4106V16.9142H15.5429V18.4518C15.5429 19.5094 15.3258 20.4023 14.8917 21.1303C14.4715 21.8445 13.8974 22.3871 13.1691 22.7579C12.4549 23.1288 11.6427 23.3142 10.7324 23.3142C9.82208 23.3142 9.00283 23.1288 8.2746 22.7579C7.56038 22.3871 6.9932 21.8445 6.57307 21.1303C6.15294 20.4023 5.94287 19.5094 5.94287 18.4518V8.68567H6.363V18.4106Z" fill="black"/>
<path d="M15.5429 13.2571H15.0857V8.68567H18.3998C19.7721 8.68567 20.9454 8.90795 21.9197 9.3525C22.894 9.79705 23.6831 10.3875 24.2869 11.1238C24.9044 11.8462 25.3504 12.638 25.6249 13.4993C25.9131 14.3468 26.0572 15.1873 26.0572 16.0208C26.0572 17.1322 25.865 18.1394 25.4808 19.0424C25.1103 19.9315 24.5957 20.6955 23.937 21.3346C23.292 21.9736 22.551 22.4668 21.7139 22.8141C20.8768 23.1475 19.9985 23.3142 19.0791 23.3142H17.8286V22.9183H18.8938C19.8133 22.9183 20.6778 22.7585 21.4874 22.439C22.3108 22.1195 23.0313 21.6611 23.6488 21.0637C24.2663 20.4524 24.7535 19.7231 25.1103 18.8757C25.4671 18.0282 25.6455 17.0697 25.6455 16C25.6455 15.2081 25.5082 14.4093 25.2338 13.6035C24.9731 12.7839 24.5476 12.0337 23.9576 11.353C23.3812 10.6723 22.6264 10.1305 21.6933 9.72759C20.7601 9.31082 19.6349 9.10244 18.3175 9.10244H15.5429V13.2571Z" fill="black"/>
</svg>
