<svg width="287" height="28" viewBox="0 0 287 28" fill="none" xmlns="http://www.w3.org/2000/svg">
<path d="M56.8074 27.892L35.8706 3.40342L35.9074 27.322H34.6154V0H34.6914L55.6294 24.5826V0.494H56.8454V27.892H56.8074Z" fill="white"/>
<path d="M1.624 18.392C1.624 20.064 1.95333 21.4953 2.612 22.686C3.27067 23.8767 4.17 24.7887 5.31 25.422C6.47533 26.0553 7.79267 26.372 9.262 26.372C10.7567 26.372 12.0867 26.0553 13.252 25.422C14.4173 24.7887 15.3293 23.8767 15.988 22.686C16.672 21.4953 17.014 20.064 17.014 18.392V0.494H18.268V18.506C18.268 20.4567 17.8627 22.116 17.052 23.484C16.2667 24.8267 15.19 25.8527 13.822 26.562C12.4793 27.2713 10.9593 27.626 9.262 27.626C7.56467 27.626 6.04467 27.2713 4.702 26.562C3.35933 25.8527 2.29533 24.8267 1.51 23.484C0.724667 22.116 0.332001 20.4567 0.332001 18.506V0.494H1.624V18.392Z" fill="white"/>
<path d="M74.568 0.494H73.276V27.322H74.568V0.494Z" fill="white"/>
<path fill-rule="evenodd" clip-rule="evenodd" d="M111.408 0V26.828H119.046C120.769 26.828 122.403 26.524 123.948 25.916C125.519 25.2827 126.912 24.3833 128.128 23.218C129.344 22.0527 130.307 20.6593 131.016 19.038C131.725 17.3913 132.08 15.5547 132.08 13.528C132.08 11.9827 131.814 10.4247 131.282 8.854C130.75 7.258 129.914 5.80133 128.774 4.484C127.659 3.14133 126.19 2.06467 124.366 1.254C122.542 0.418 120.351 0 117.792 0H111.408ZM118.628 25.574H112.7V1.292H117.83C120.059 1.292 121.985 1.634 123.606 2.318C125.253 3.002 126.595 3.93933 127.634 5.13C128.698 6.29533 129.483 7.6 129.99 9.044C130.497 10.488 130.75 11.9573 130.75 13.452C130.75 15.3267 130.433 17.0113 129.8 18.506C129.167 20.0007 128.293 21.28 127.178 22.344C126.089 23.3827 124.809 24.1807 123.34 24.738C121.871 25.2953 120.3 25.574 118.628 25.574Z" fill="white"/>
<path d="M286.072 27.892L265.135 3.4034L265.172 27.322H263.88V0H263.956L284.894 24.5826V0.494H286.11V27.892H286.072Z" fill="white"/>
<path d="M246.579 26.372C247.213 26.1187 247.77 25.8527 248.251 25.574V15.428H240.689V16.644H246.959V24.776C246.047 25.2827 244.971 25.6753 243.729 25.954C242.488 26.2327 241.31 26.372 240.195 26.372C238.321 26.372 236.623 26.0553 235.103 25.422C233.583 24.7887 232.279 23.9147 231.189 22.8C230.125 21.66 229.302 20.3553 228.719 18.886C228.137 17.3913 227.845 15.77 227.845 14.022C227.845 12.274 228.162 10.64 228.795 9.12C229.429 7.6 230.303 6.27 231.417 5.13C232.557 3.99 233.887 3.10333 235.407 2.47C236.927 1.81133 238.561 1.482 240.309 1.482C241.095 1.482 241.867 1.558 242.627 1.71C243.413 1.862 244.16 2.07733 244.869 2.356C245.604 2.60933 246.275 2.926 246.883 3.306L247.415 2.166C246.402 1.558 245.287 1.07667 244.071 0.722C242.855 0.367333 241.576 0.19 240.233 0.19C238.359 0.19 236.585 0.544666 234.913 1.254C233.267 1.938 231.81 2.91333 230.543 4.18C229.302 5.42133 228.314 6.89067 227.579 8.588C226.87 10.2853 226.515 12.1093 226.515 14.06C226.515 15.96 226.832 17.7333 227.465 19.38C228.124 21.0013 229.049 22.4327 230.239 23.674C231.455 24.9153 232.912 25.8907 234.609 26.6C236.307 27.284 238.194 27.626 240.271 27.626C240.93 27.626 241.627 27.5753 242.361 27.474C243.096 27.3727 243.818 27.2333 244.527 27.056C245.262 26.8533 245.946 26.6253 246.579 26.372Z" fill="white"/>
<path d="M194.366 2.964C193.631 2.60933 192.694 2.28 191.554 1.976C190.414 1.64667 189.261 1.482 188.096 1.482C186.221 1.482 184.727 1.95067 183.612 2.888C182.497 3.82533 181.94 5.00333 181.94 6.422C181.94 7.486 182.244 8.37267 182.852 9.082C183.485 9.766 184.309 10.3487 185.322 10.83C186.335 11.3113 187.412 11.78 188.552 12.236C189.464 12.5653 190.351 12.9327 191.212 13.338C192.099 13.7433 192.897 14.2373 193.606 14.82C194.341 15.3773 194.923 16.0867 195.354 16.948C195.785 17.8093 196 18.8607 196 20.102C196 21.622 195.645 22.952 194.936 24.092C194.227 25.2067 193.251 26.0807 192.01 26.714C190.769 27.322 189.35 27.626 187.754 27.626C186.361 27.626 185.107 27.4487 183.992 27.094C182.877 26.7393 181.927 26.3467 181.142 25.916C180.382 25.4853 179.799 25.1433 179.394 24.89L180.002 23.788C180.559 24.1933 181.231 24.5987 182.016 25.004C182.827 25.4093 183.713 25.764 184.676 26.068C185.639 26.3467 186.601 26.486 187.564 26.486C188.729 26.486 189.857 26.258 190.946 25.802C192.035 25.3207 192.922 24.6113 193.606 23.674C194.315 22.7367 194.67 21.5587 194.67 20.14C194.67 18.7213 194.328 17.594 193.644 16.758C192.985 15.8967 192.124 15.2127 191.06 14.706C190.021 14.174 188.919 13.6927 187.754 13.262C186.893 12.9327 186.031 12.5907 185.17 12.236C184.334 11.856 183.561 11.4253 182.852 10.944C182.168 10.4373 181.623 9.82933 181.218 9.12C180.813 8.41067 180.61 7.562 180.61 6.574C180.61 5.33267 180.927 4.256 181.56 3.344C182.219 2.40667 183.093 1.68467 184.182 1.178C185.297 0.646 186.551 0.367333 187.944 0.342C189.059 0.342 190.262 0.494 191.554 0.798001C192.846 1.102 193.961 1.49467 194.898 1.976L194.366 2.964Z" fill="white"/>
<path d="M210.531 0.494H211.823V27.322H210.531V0.494Z" fill="white"/>
<path d="M168 4.29V3H145V4.29H168Z" fill="white"/>
<path d="M168 13V14.29H145V13H168Z" fill="white"/>
<path d="M168 24.29V23H145V24.29H168Z" fill="white"/>
</svg>
