<svg width="70" height="70" viewBox="0 0 70 70" fill="none" xmlns="http://www.w3.org/2000/svg">
<path fill-rule="evenodd" clip-rule="evenodd" d="M35 70C54.33 70 70 54.33 70 35C70 15.67 54.33 0 35 0C15.67 0 0 15.67 0 35C0 54.33 15.67 70 35 70ZM15.1597 45.6366C14.3326 44.1643 13.919 42.3765 13.919 40.2732V19H13V40.3634C13 42.677 13.4595 44.63 14.3786 46.2225C15.2976 47.785 16.5383 48.9718 18.1006 49.7831C19.6937 50.5944 21.4858 51 23.477 51C25.4683 51 27.2451 50.5944 28.8074 49.7831C30.4005 48.9718 31.6565 47.785 32.5755 46.2225C33.5252 44.63 34 42.677 34 40.3634V37H33.081V40.2732C33.081 42.3765 32.6674 44.1643 31.8403 45.6366C31.0131 47.1089 29.8643 48.2357 28.3939 49.0168C26.954 49.7681 25.3151 50.1437 23.477 50.1437C21.6389 50.1437 20 49.7681 18.5602 49.0168C17.1204 48.2357 15.9869 47.1089 15.1597 45.6366ZM33 29H34V19.9116H40.0694C42.9512 19.9116 45.4128 20.3676 47.454 21.2792C49.4953 22.1605 51.1464 23.3457 52.4071 24.8347C53.6979 26.3239 54.6285 27.9648 55.1989 29.7578C55.7993 31.5204 56.0995 33.2678 56.0995 35C56.0995 37.34 55.7092 39.4369 54.9287 41.2906C54.1482 43.1443 53.0826 44.7397 51.7317 46.0769C50.3809 47.3837 48.8049 48.3865 47.0038 49.0854C45.2326 49.7844 43.3415 50.1339 41.3302 50.1339H39V51H41.7355C43.7467 51 45.6679 50.6354 47.4991 49.906C49.3302 49.1462 50.9512 48.0674 52.3621 46.6696C53.803 45.2716 54.9287 43.6002 55.7392 41.6553C56.5797 39.6799 57 37.4767 57 35.0455C57 33.2222 56.6848 31.3837 56.0544 29.5299C55.454 27.6458 54.4784 25.9136 53.1276 24.3334C51.8068 22.7227 50.0807 21.4312 47.9493 20.4587C45.818 19.4862 43.2514 19 40.2495 19H33V29Z" fill="white"/>
</svg>
