<svg width="104" height="96" viewBox="0 0 104 96" fill="none" xmlns="http://www.w3.org/2000/svg">
<path fill-rule="evenodd" clip-rule="evenodd" d="M1.12134 78.1868V94.5602H5.81307C6.84517 94.5602 7.82671 94.3746 8.75566 94.0026L8.75766 94.0018C9.7004 93.6149 10.5374 93.065 11.2672 92.3531C11.9989 91.6394 12.5767 90.7873 13.0012 89.7997L13.0018 89.7984C13.4288 88.7893 13.6401 87.6689 13.6401 86.4409C13.6401 85.4981 13.4806 84.5499 13.1636 83.5972C12.8442 82.6221 12.3425 81.7327 11.6604 80.9299C10.9853 80.1029 10.0993 79.4445 9.01013 78.9515C7.90918 78.4382 6.59786 78.1868 5.08445 78.1868H1.12134ZM11.8273 89.2873C11.4717 90.1414 10.9828 90.8687 10.3613 91.4725C9.75377 92.0621 9.03977 92.5159 8.21664 92.8336C7.39382 93.1513 6.51238 93.311 5.5702 93.311H2.37958V79.4584H5.10653C6.37617 79.4584 7.4592 79.6567 8.36247 80.0446L8.36377 80.0451C9.28876 80.4362 10.0353 80.9686 10.6103 81.6395L10.6122 81.6417L10.6141 81.6438C11.2103 82.3084 11.649 83.0507 11.932 83.8718C12.2174 84.6997 12.3598 85.5408 12.3598 86.3959C12.3598 87.4763 12.1805 88.4388 11.8273 89.2873Z" fill="white"/>
<path d="M90.1296 78.1868L101.923 92.2798V78.4789H103.137V95.1894H102.743L90.951 81.1512L90.9718 94.8523H89.7131V78.1868H90.1296Z" fill="white"/>
<path d="M81.0149 93.7834L81.1398 93.7098V87.3108H76.2385V88.5374H79.8816V92.9424C79.4044 93.1944 78.8455 93.3951 78.2021 93.5421C77.4968 93.7033 76.8314 93.7829 76.2052 93.7829C75.1454 93.7829 74.1935 93.6008 73.3457 93.2413C72.4934 92.8798 71.765 92.3828 71.1574 91.7505C70.5621 91.1008 70.1011 90.3573 69.7741 89.5185C69.4477 88.6661 69.2832 87.7385 69.2832 86.733C69.2832 85.7301 69.4615 84.7966 69.8163 83.9302C70.1725 83.06 70.6628 82.3011 71.2871 81.651C71.9255 81.0016 72.6699 80.4964 73.5223 80.1349L73.524 80.1342L73.5256 80.1335C74.3749 79.7589 75.2892 79.5708 76.2715 79.5708C76.711 79.5708 77.143 79.614 77.5677 79.7005L77.5693 79.7008C78.0109 79.7878 78.4299 79.9108 78.8268 80.0695L78.8318 80.0715L78.837 80.0733C79.247 80.2172 79.6193 80.3963 79.955 80.6098L80.2006 80.766L80.7249 79.6224L80.5326 79.5049C79.9238 79.1331 79.2557 78.8398 78.5295 78.6242C77.7982 78.4071 77.0305 78.2991 76.2273 78.2991C75.1048 78.2991 74.0404 78.5154 73.0364 78.9488C72.0488 79.3665 71.175 79.9623 70.416 80.7347C69.6712 81.4928 69.0799 82.3888 68.6413 83.4201L68.6401 83.423C68.2146 84.4593 68.0029 85.5709 68.0029 86.7555C68.0029 87.9073 68.1916 88.9867 68.5712 89.9914L68.5721 89.9936L68.5729 89.9958C68.9672 90.9835 69.5215 91.8573 70.2357 92.6152L70.2376 92.6171C70.969 93.3771 71.8442 93.9729 72.8602 94.4051L72.8633 94.4063C73.8838 94.8249 75.0137 95.0321 76.2494 95.0321C76.6453 95.0321 77.0619 95.0011 77.499 94.9397C77.935 94.8785 78.3636 94.7944 78.7849 94.6872L78.7879 94.6864L78.7909 94.6855C79.2259 94.5634 79.6325 94.4256 80.0103 94.2718C80.3873 94.1183 80.7225 93.9557 81.0149 93.7834Z" fill="white"/>
<path d="M47.8713 79.8526L47.8739 79.8533L47.8764 79.854C48.5294 80.0313 49.0574 80.221 49.4649 80.4212L49.6859 80.5298L50.2295 79.5024L50.0034 79.3842C49.4363 79.0878 48.7681 78.8491 48.002 78.6657C47.2355 78.4821 46.5163 78.389 45.8454 78.389H45.843L45.8407 78.3891C44.9993 78.4046 44.2342 78.5761 43.5498 78.9084C42.8787 79.2263 42.336 79.6818 41.9272 80.274L41.9264 80.2751C41.5261 80.8618 41.3303 81.5498 41.3303 82.3283C41.3303 82.9469 41.4551 83.4935 41.716 83.9583C41.9693 84.4094 42.3095 84.7954 42.734 85.1154L42.7382 85.1185L42.7425 85.1215C43.1673 85.415 43.629 85.6767 44.127 85.9071L44.1312 85.9091L44.1355 85.9109C44.6379 86.1214 45.1404 86.3245 45.6429 86.5201L45.6456 86.5211C46.3137 86.7724 46.9447 87.053 47.5386 87.3626L47.5419 87.3643L47.5452 87.3659C48.13 87.6493 48.5978 88.0289 48.9544 88.5035L48.9569 88.5068L48.9595 88.5101C49.3105 88.9467 49.4996 89.5513 49.4996 90.3512C49.4996 91.1476 49.3047 91.7879 48.9315 92.2897L48.9302 92.2915L48.929 92.2933C48.5586 92.8099 48.0796 93.2005 47.4878 93.4672C46.8865 93.723 46.2661 93.8504 45.6246 93.8504C45.0915 93.8504 44.5573 93.772 44.0212 93.6144C43.4751 93.4387 42.974 93.2345 42.5175 93.0023C42.0703 92.7673 41.6924 92.5345 41.3818 92.3046L41.1469 92.1307L40.5416 93.2474L40.7413 93.3744C40.9815 93.5272 41.3237 93.7316 41.7663 93.9869L41.7695 93.9886C42.2438 94.2534 42.8119 94.4917 43.4709 94.7051C44.1481 94.9244 44.9037 95.0321 45.735 95.0321C46.6957 95.0321 47.5597 94.8456 48.3211 94.4661L48.323 94.4651L48.3248 94.4642C49.0844 94.0697 49.6858 93.5223 50.1232 92.8229L50.1245 92.8207C50.5642 92.1014 50.78 91.2677 50.78 90.3287C50.78 89.5668 50.6502 88.9044 50.3786 88.3515C50.113 87.8108 49.7516 87.3612 49.2943 87.0072C48.8655 86.6493 48.3846 86.3467 47.8526 86.0991C47.3465 85.8567 46.8257 85.6371 46.2903 85.4401C45.6339 85.1728 45.0147 84.8984 44.4323 84.6168C43.869 84.3445 43.4197 84.0192 43.0778 83.6444C42.7706 83.2779 42.6106 82.8153 42.6106 82.2385C42.6106 81.475 42.9009 80.8483 43.4933 80.3413C44.0834 79.8362 44.8877 79.5708 45.9337 79.5708C46.5861 79.5708 47.2317 79.6645 47.8713 79.8526Z" fill="white"/>
<path d="M59.974 94.8523V78.4789H58.7157V94.8523H59.974Z" fill="white"/>
<path d="M34.5109 81.2314V79.9609H20.6395V81.2314H34.5109Z" fill="white"/>
<path d="M20.6395 87.1453H34.5109V85.8749H20.6395V87.1453Z" fill="white"/>
<path d="M34.5109 93.0592V91.7888H20.6395V93.0592H34.5109Z" fill="white"/>
<path d="M21.5773 64.8016C25.6244 64.8016 29.2741 63.9768 32.502 62.3021C35.8011 60.6218 38.4074 58.1581 40.3071 54.9307C42.2845 51.6146 43.2447 47.5937 43.2447 42.9184V35.8105H39.3925V42.7417C39.3925 46.733 38.6078 50.0567 37.0901 52.7573C35.5629 55.4748 33.4527 57.5427 30.7458 58.9812C28.0866 60.3674 25.0387 61.0731 21.5773 61.0731C18.1177 61.0731 15.0712 60.3681 12.4131 58.9834C9.76732 57.5466 7.68418 55.4791 6.15459 52.7573C4.63686 50.0567 3.85212 46.733 3.85212 42.7417V2.56145H0V42.9184C0 47.5895 0.928353 51.6066 2.84155 54.9206L2.84367 54.9243L2.84583 54.9279C4.74331 58.1527 7.31743 60.6177 10.5585 62.3L10.562 62.3019L10.5657 62.3037C13.8504 63.976 17.5281 64.8016 21.5773 64.8016Z" fill="white"/>
<path d="M45.5437 12.0443C47.0709 9.32674 49.1812 7.25878 51.8883 5.82026C54.5474 4.43421 57.5952 3.72855 61.0565 3.72855C64.516 3.72855 67.5626 4.43353 70.2207 5.81824C72.8665 7.25504 74.9496 9.32258 76.4791 12.0443C77.9969 14.7449 78.7816 18.0686 78.7816 22.06V62.2402H82.6337V21.8832C82.6337 17.2121 81.7054 13.195 79.7922 9.88103L79.79 9.87735L79.7879 9.8737C77.8904 6.64891 75.3163 4.18393 72.0753 2.50158L72.0717 2.49972L72.0681 2.49788C68.7834 0.825649 65.1056 0 61.0565 0C57.0092 0 53.3594 0.824933 50.1314 2.49974C46.8325 4.18002 44.2263 6.6436 42.3267 9.87088C40.3492 13.1869 39.3891 17.2079 39.3891 21.8832V28.9912H43.2412V22.06C43.2412 18.0686 44.0259 14.7449 45.5437 12.0443Z" fill="white"/>
<path d="M103.232 12.2708H99.4658V62.2462H103.232V12.2708Z" fill="white"/>
<circle cx="101.182" cy="3.32994" r="2.81773" fill="white"/>
</svg>
