<svg width="44" height="27" viewBox="0 0 44 27" fill="none" xmlns="http://www.w3.org/2000/svg">
<path d="M8.9903 27C10.6765 27 12.1972 26.6563 13.5422 25.9585C14.9167 25.2584 16.0027 24.2319 16.7942 22.8872C17.6181 21.5056 18.0182 19.8302 18.0182 17.8822V14.9207H16.4131V17.8086C16.4131 19.4716 16.0862 20.8564 15.4538 21.9817C14.8175 23.1139 13.9383 23.9755 12.8104 24.5749C11.7025 25.1524 10.4325 25.4465 8.9903 25.4465C7.54886 25.4465 6.27952 25.1527 5.17199 24.5758C4.06961 23.9772 3.20166 23.1157 2.56435 21.9817C1.93198 20.8564 1.60501 19.4716 1.60501 17.8086V1.06724H0V17.8822C0 19.8285 0.386804 21.5022 1.18395 22.883L1.18483 22.8845L1.18573 22.8861C1.97633 24.2297 3.04885 25.2567 4.39925 25.9577L4.40074 25.9585L4.40225 25.9592C5.77084 26.656 7.30321 27 8.9903 27Z" fill="#302D2C"/>
<path d="M18.976 5.01833C19.6124 3.88604 20.4917 3.02442 21.6196 2.42505C22.7275 1.84754 23.9974 1.55352 25.4396 1.55352C26.881 1.55352 28.1504 1.84726 29.2579 2.42421C30.3603 3.02286 31.2282 3.88431 31.8655 5.01833C32.4979 6.14357 32.8248 7.52841 32.8248 9.19142V25.9328H34.4299V9.11777C34.4299 7.17153 34.043 5.4978 33.2459 4.11699L33.245 4.11546L33.2441 4.11394C32.4535 2.77031 31.381 1.74326 30.0306 1.0423L30.0291 1.04152L30.0276 1.04076C28.659 0.344012 27.1266 0 25.4396 0C23.7532 0 22.2325 0.343713 20.8875 1.04153C19.513 1.74163 18.4272 2.76809 17.6357 4.11276C16.8118 5.49442 16.4117 7.16978 16.4117 9.11777V12.0793H18.0167V9.19142C18.0167 7.52841 18.3437 6.14357 18.976 5.01833Z" fill="#302D2C"/>
<path d="M43.0121 6.11271H41.443V25.9353H43.0121V6.11271Z" fill="#302D2C"/>
<circle cx="42.1582" cy="1.38747" r="1.17403" fill="#302D2C"/>
</svg>
