<svg width="286" height="28" viewBox="0 0 286 28" fill="none" xmlns="http://www.w3.org/2000/svg">
<path d="M56.4754 27.892L35.5386 3.40342L35.5754 27.322H34.2834V0H34.3594L55.2974 24.5826V0.494H56.5134V27.892H56.4754Z" fill="#302D2C"/>
<path d="M1.292 18.392C1.292 20.064 1.62133 21.4953 2.28 22.686C2.93867 23.8767 3.838 24.7887 4.978 25.422C6.14333 26.0553 7.46067 26.372 8.93 26.372C10.4247 26.372 11.7547 26.0553 12.92 25.422C14.0853 24.7887 14.9973 23.8767 15.656 22.686C16.34 21.4953 16.682 20.064 16.682 18.392V0.494H17.936V18.506C17.936 20.4567 17.5307 22.116 16.72 23.484C15.9347 24.8267 14.858 25.8527 13.49 26.562C12.1473 27.2713 10.6273 27.626 8.93 27.626C7.23267 27.626 5.71267 27.2713 4.37 26.562C3.02733 25.8527 1.96333 24.8267 1.178 23.484C0.392667 22.116 0 20.4567 0 18.506V0.494H1.292V18.392Z" fill="#302D2C"/>
<path d="M74.236 0.494H72.944V27.322H74.236V0.494Z" fill="#302D2C"/>
<path fill-rule="evenodd" clip-rule="evenodd" d="M111.076 0V26.828H118.714C120.437 26.828 122.071 26.524 123.616 25.916C125.187 25.2827 126.58 24.3833 127.796 23.218C129.012 22.0527 129.975 20.6593 130.684 19.038C131.393 17.3913 131.748 15.5547 131.748 13.528C131.748 11.9827 131.482 10.4247 130.95 8.854C130.418 7.258 129.582 5.80133 128.442 4.484C127.327 3.14133 125.858 2.06467 124.034 1.254C122.21 0.418 120.019 0 117.46 0H111.076ZM118.296 25.574H112.368V1.292H117.498C119.727 1.292 121.653 1.634 123.274 2.318C124.921 3.002 126.263 3.93933 127.302 5.13C128.366 6.29533 129.151 7.6 129.658 9.044C130.165 10.488 130.418 11.9573 130.418 13.452C130.418 15.3267 130.101 17.0113 129.468 18.506C128.835 20.0007 127.961 21.28 126.846 22.344C125.757 23.3827 124.477 24.1807 123.008 24.738C121.539 25.2953 119.968 25.574 118.296 25.574Z" fill="#302D2C"/>
<path d="M285.74 27.892L264.803 3.4034L264.84 27.322H263.548V0H263.624L284.562 24.5826V0.494H285.778V27.892H285.74Z" fill="#302D2C"/>
<path d="M246.247 26.372C246.881 26.1187 247.438 25.8527 247.919 25.574V15.428H240.357V16.644H246.627V24.776C245.715 25.2827 244.639 25.6753 243.397 25.954C242.156 26.2327 240.978 26.372 239.863 26.372C237.989 26.372 236.291 26.0553 234.771 25.422C233.251 24.7887 231.947 23.9147 230.857 22.8C229.793 21.66 228.97 20.3553 228.387 18.886C227.805 17.3913 227.513 15.77 227.513 14.022C227.513 12.274 227.83 10.64 228.463 9.12C229.097 7.6 229.971 6.27 231.085 5.13C232.225 3.99 233.555 3.10333 235.075 2.47C236.595 1.81133 238.229 1.482 239.977 1.482C240.763 1.482 241.535 1.558 242.295 1.71C243.081 1.862 243.828 2.07733 244.537 2.356C245.272 2.60933 245.943 2.926 246.551 3.306L247.083 2.166C246.07 1.558 244.955 1.07667 243.739 0.722C242.523 0.367333 241.244 0.19 239.901 0.19C238.027 0.19 236.253 0.544666 234.581 1.254C232.935 1.938 231.478 2.91333 230.211 4.18C228.97 5.42133 227.982 6.89067 227.247 8.588C226.538 10.2853 226.183 12.1093 226.183 14.06C226.183 15.96 226.5 17.7333 227.133 19.38C227.792 21.0013 228.717 22.4327 229.907 23.674C231.123 24.9153 232.58 25.8907 234.277 26.6C235.975 27.284 237.862 27.626 239.939 27.626C240.598 27.626 241.295 27.5753 242.029 27.474C242.764 27.3727 243.486 27.2333 244.195 27.056C244.93 26.8533 245.614 26.6253 246.247 26.372Z" fill="#302D2C"/>
<path d="M194.034 2.964C193.299 2.60933 192.362 2.28 191.222 1.976C190.082 1.64667 188.929 1.482 187.764 1.482C185.889 1.482 184.395 1.95067 183.28 2.888C182.165 3.82533 181.608 5.00333 181.608 6.422C181.608 7.486 181.912 8.37267 182.52 9.082C183.153 9.766 183.977 10.3487 184.99 10.83C186.003 11.3113 187.08 11.78 188.22 12.236C189.132 12.5653 190.019 12.9327 190.88 13.338C191.767 13.7433 192.565 14.2373 193.274 14.82C194.009 15.3773 194.591 16.0867 195.022 16.948C195.453 17.8093 195.668 18.8607 195.668 20.102C195.668 21.622 195.313 22.952 194.604 24.092C193.895 25.2067 192.919 26.0807 191.678 26.714C190.437 27.322 189.018 27.626 187.422 27.626C186.029 27.626 184.775 27.4487 183.66 27.094C182.545 26.7393 181.595 26.3467 180.81 25.916C180.05 25.4853 179.467 25.1433 179.062 24.89L179.67 23.788C180.227 24.1933 180.899 24.5987 181.684 25.004C182.495 25.4093 183.381 25.764 184.344 26.068C185.307 26.3467 186.269 26.486 187.232 26.486C188.397 26.486 189.525 26.258 190.614 25.802C191.703 25.3207 192.59 24.6113 193.274 23.674C193.983 22.7367 194.338 21.5587 194.338 20.14C194.338 18.7213 193.996 17.594 193.312 16.758C192.653 15.8967 191.792 15.2127 190.728 14.706C189.689 14.174 188.587 13.6927 187.422 13.262C186.561 12.9327 185.699 12.5907 184.838 12.236C184.002 11.856 183.229 11.4253 182.52 10.944C181.836 10.4373 181.291 9.82933 180.886 9.12C180.481 8.41067 180.278 7.562 180.278 6.574C180.278 5.33267 180.595 4.256 181.228 3.344C181.887 2.40667 182.761 1.68467 183.85 1.178C184.965 0.646 186.219 0.367333 187.612 0.342C188.727 0.342 189.93 0.494 191.222 0.798001C192.514 1.102 193.629 1.49467 194.566 1.976L194.034 2.964Z" fill="#302D2C"/>
<path d="M210.199 0.494H211.491V27.322H210.199V0.494Z" fill="#302D2C"/>
<path d="M167.668 4.29V3H144.668V4.29H167.668Z" fill="#302D2C"/>
<path d="M167.668 13V14.29H144.668V13H167.668Z" fill="#302D2C"/>
<path d="M167.668 24.29V23H144.668V24.29H167.668Z" fill="#302D2C"/>
</svg>
