<svg width="104" height="67" viewBox="0 0 104 67" fill="none" xmlns="http://www.w3.org/2000/svg">
<path fill-rule="evenodd" clip-rule="evenodd" d="M0 50V66.3515H4.5469C5.5724 66.3515 6.54512 66.1662 7.46506 65.7956C8.40007 65.4096 9.22953 64.8615 9.95341 64.1512C10.6773 63.441 11.2504 62.5917 11.6726 61.6035C12.0949 60.5999 12.306 59.4805 12.306 58.2452C12.306 57.3034 12.1477 56.3538 11.831 55.3965C11.5143 54.4237 11.0166 53.5359 10.338 52.733C9.67442 51.9146 8.79972 51.2584 7.71389 50.7643C6.62807 50.2548 5.32357 50 3.8004 50H0ZM4.29806 65.5872H0.769127V50.7875H3.82301C5.15014 50.7875 6.29629 50.9959 7.26146 51.4128C8.24173 51.8297 9.04101 52.401 9.65933 53.1267C10.2927 53.837 10.7602 54.6322 11.0619 55.5123C11.3635 56.3924 11.5143 57.2879 11.5143 58.1989C11.5143 59.3415 11.3258 60.3683 10.9488 61.2793C10.5717 62.1903 10.0514 62.97 9.38788 63.6185C8.7394 64.2516 7.97781 64.738 7.10312 65.0777C6.22842 65.4174 5.2934 65.5872 4.29806 65.5872Z" fill="white"/>
<path d="M103.977 67L91.5137 52.0744L91.5356 66.6526H90.7665V50H90.8117L103.276 64.983V50.3011H104V67H103.977Z" fill="white"/>
<path d="M80.4674 66.0736C80.8444 65.9192 81.1762 65.757 81.4627 65.5872V59.4033H76.9611V60.1444H80.6936V65.1008C80.1507 65.4096 79.5097 65.649 78.7708 65.8188C78.0318 65.9886 77.3306 66.0736 76.667 66.0736C75.551 66.0736 74.5406 65.8806 73.6357 65.4946C72.7309 65.1085 71.9542 64.5758 71.3057 63.8965C70.6723 63.2016 70.1822 62.4064 69.8353 61.5109C69.4885 60.5999 69.315 59.6117 69.315 58.5463C69.315 57.4809 69.5035 56.485 69.8806 55.5586C70.2576 54.6322 70.7779 53.8215 71.4415 53.1267C72.1201 52.4319 72.9118 51.8915 73.8167 51.5055C74.7216 51.104 75.6943 50.9033 76.7349 50.9033C77.2024 50.9033 77.6623 50.9496 78.1148 51.0422C78.5823 51.1349 79.0272 51.2661 79.4494 51.436C79.8868 51.5904 80.2864 51.7834 80.6484 52.015L80.965 51.3202C80.3618 50.9496 79.6983 50.6562 78.9744 50.4401C78.2505 50.2239 77.4889 50.1158 76.6896 50.1158C75.5736 50.1158 74.518 50.332 73.5226 50.7643C72.5424 51.1812 71.6752 51.7757 70.9212 52.5477C70.1822 53.3043 69.594 54.1998 69.1567 55.2343C68.7344 56.2688 68.5233 57.3806 68.5233 58.5695C68.5233 59.7275 68.7118 60.8084 69.0888 61.812C69.4809 62.8002 70.0314 63.6726 70.7402 64.4292C71.4641 65.1857 72.3312 65.7802 73.3416 66.2125C74.3521 66.6294 75.4756 66.8379 76.7122 66.8379C77.1043 66.8379 77.5191 66.807 77.9564 66.7452C78.3938 66.6835 78.8236 66.5985 79.2458 66.4905C79.6832 66.3669 80.0904 66.228 80.4674 66.0736Z" fill="white"/>
<path d="M49.3849 51.8065C48.9475 51.5904 48.3895 51.3896 47.7109 51.2044C47.0323 51.0036 46.3461 50.9033 45.6524 50.9033C44.5364 50.9033 43.6466 51.1889 42.983 51.7602C42.3195 52.3315 41.9877 53.0495 41.9877 53.9142C41.9877 54.5627 42.1687 55.1031 42.5306 55.5354C42.9076 55.9523 43.3978 56.3074 44.001 56.6008C44.6042 56.8942 45.2452 57.1798 45.9238 57.4578C46.4667 57.6585 46.9946 57.8824 47.5073 58.1294C48.0351 58.3765 48.5102 58.6776 48.9325 59.0327C49.3698 59.3724 49.7167 59.8047 49.973 60.3297C50.2294 60.8547 50.3576 61.4955 50.3576 62.252C50.3576 63.1785 50.1465 63.9891 49.7242 64.6839C49.3019 65.3633 48.7213 65.896 47.9824 66.282C47.2434 66.6526 46.3989 66.8379 45.4488 66.8379C44.6193 66.8379 43.8728 66.7298 43.2093 66.5136C42.5457 66.2975 41.9802 66.0581 41.5126 65.7956C41.0602 65.5332 40.7134 65.3247 40.4721 65.1703L40.834 64.4986C41.1658 64.7457 41.5654 64.9927 42.0329 65.2398C42.5155 65.4868 43.0434 65.703 43.6164 65.8883C44.1895 66.0581 44.7626 66.1431 45.3357 66.1431C46.0294 66.1431 46.7005 66.0041 47.349 65.7262C47.9974 65.4328 48.5253 65.0005 48.9325 64.4292C49.3547 63.8579 49.5659 63.1399 49.5659 62.2752C49.5659 61.4105 49.3623 60.7234 48.9551 60.2139C48.563 59.6889 48.0502 59.272 47.4168 58.9632C46.7985 58.639 46.1425 58.3456 45.4488 58.0831C44.936 57.8824 44.4233 57.6739 43.9105 57.4578C43.4128 57.2262 42.9529 56.9637 42.5306 56.6703C42.1234 56.3615 41.7992 55.9909 41.5579 55.5586C41.3166 55.1262 41.1959 54.609 41.1959 54.0068C41.1959 53.2502 41.3845 52.594 41.7615 52.0381C42.1536 51.4668 42.6739 51.0268 43.3224 50.718C43.9859 50.3937 44.7324 50.2239 45.5619 50.2084C46.2254 50.2084 46.9418 50.3011 47.7109 50.4864C48.48 50.6717 49.1436 50.911 49.7016 51.2044L49.3849 51.8065Z" fill="white"/>
<path d="M59.0082 50.3011H59.7773V66.6526H59.0082V50.3011Z" fill="white"/>
<path d="M33.6892 52.6147V51.8285H19.9973V52.6147H33.6892Z" fill="white"/>
<path d="M33.6892 57.9234V58.7097H19.9973V57.9234H33.6892Z" fill="white"/>
<path d="M33.6892 64.8046V64.0184H19.9973V64.8046H33.6892Z" fill="white"/>
<path d="M79.1186 39L49.7874 4.75884L49.839 38.203H48.029V0H48.1354L77.4683 34.3727V0.690736H79.1718V39H79.1186Z" fill="white"/>
<path d="M1.81001 25.7166C1.81001 28.0545 2.27139 30.0559 3.19414 31.7207C4.11689 33.3856 5.3768 34.6608 6.97387 35.5463C8.60643 36.4319 10.4519 36.8747 12.5104 36.8747C14.6043 36.8747 16.4676 36.4319 18.1001 35.5463C19.7327 34.6608 21.0103 33.3856 21.9331 31.7207C22.8913 30.0559 23.3705 28.0545 23.3705 25.7166V0.690736H25.1272V25.876C25.1272 28.6035 24.5594 30.9237 23.4237 32.8365C22.3235 34.7139 20.8151 36.1485 18.8987 37.1403C17.0177 38.1322 14.8882 38.6281 12.5104 38.6281C10.1325 38.6281 8.00309 38.1322 6.1221 37.1403C4.24111 36.1485 2.75051 34.7139 1.65031 32.8365C0.550102 30.9237 0 28.6035 0 25.876V0.690736H1.81001V25.7166Z" fill="white"/>
<path d="M104 0.690736H102.19V38.203H104V0.690736Z" fill="white"/>
</svg>
