<svg width="15" height="15" viewBox="0 0 15 15" fill="none" xmlns="http://www.w3.org/2000/svg">
<path d="M14 4.35V10.65C14 11.3956 13.3284 12 12.5 12H2.5C1.67157 12 1 11.3956 1 10.65V4.35M14 4.35C14 3.60442 13.3284 3 12.5 3H2.5C1.67157 3 1 3.60442 1 4.35M14 4.35V4.49563C14 4.96443 13.7298 5.39967 13.2861 5.64537L8.28615 8.4146C7.80404 8.68161 7.19596 8.68161 6.71385 8.4146L1.71385 5.64537C1.27023 5.39967 1 4.96443 1 4.49563V4.35" stroke="#DDDDDD" stroke-width="0.5" stroke-linecap="round" stroke-linejoin="round"/>
</svg>
